<svg xmlns="http://www.w3.org/2000/svg" viewBox="0 0 900 620" role="img" aria-label="Cocinas Madrid">
  <defs>
    <linearGradient id="bg" x1="0" x2="1" y1="0" y2="1"><stop stop-color="#fffdf8"/><stop offset=".58" stop-color="#f3ecdf"/><stop offset="1" stop-color="#e7dac8"/></linearGradient>
    <radialGradient id="glow" cx=".2" cy=".12" r=".7"><stop stop-color="#b56f2f" stop-opacity=".18"/><stop offset=".72" stop-color="#b56f2f" stop-opacity="0"/></radialGradient>
    <pattern id="grid" width="56" height="56" patternUnits="userSpaceOnUse"><path d="M56 0H0v56" fill="none" stroke="#151411" stroke-opacity=".035"/></pattern>
  </defs>
  <rect width="900" height="620" fill="url(#bg)"/>
  <rect width="900" height="620" fill="url(#glow)"/>
  <rect width="900" height="620" fill="url(#grid)"/>
  <rect x="54" y="50" width="792" height="520" rx="18" fill="none" stroke="#151411" stroke-opacity=".1"/>
  <path d="M76 92h56" stroke="#b56f2f" stroke-width="4" stroke-linecap="round"/>
  <path d="M76 112h118" stroke="#151411" stroke-width="4" stroke-opacity=".18" stroke-linecap="round"/>
  <g transform="translate(28 26) scale(.94)" opacity=".92">
    <rect x="90" y="145" width="700" height="360" fill="#fffaf0" stroke="#151411" stroke-width="5"/><rect x="120" y="180" width="180" height="240" fill="#d8c7aa"/><rect x="320" y="180" width="190" height="120" fill="#ede5d7"/><rect x="530" y="180" width="220" height="240" fill="#c99a62"/><path d="M110 430h660" stroke="#151411" stroke-width="12"/><path d="M140 255h130M350 235h130M560 250h160" stroke="#b56f2f" stroke-width="8"/><circle cx="430" cy="380" r="48" fill="#69735a"/>
  </g>
</svg>
