<svg xmlns="http://www.w3.org/2000/svg" viewBox="0 0 900 620" role="img" aria-label="Suelos">
  <defs>
    <linearGradient id="bg" x1="0" x2="1" y1="0" y2="1"><stop stop-color="#fffdf8"/><stop offset=".58" stop-color="#f3ecdf"/><stop offset="1" stop-color="#e7dac8"/></linearGradient>
    <radialGradient id="glow" cx=".2" cy=".12" r=".7"><stop stop-color="#b56f2f" stop-opacity=".18"/><stop offset=".72" stop-color="#b56f2f" stop-opacity="0"/></radialGradient>
    <pattern id="grid" width="56" height="56" patternUnits="userSpaceOnUse"><path d="M56 0H0v56" fill="none" stroke="#151411" stroke-opacity=".035"/></pattern>
  </defs>
  <rect width="900" height="620" fill="url(#bg)"/>
  <rect width="900" height="620" fill="url(#glow)"/>
  <rect width="900" height="620" fill="url(#grid)"/>
  <rect x="54" y="50" width="792" height="520" rx="18" fill="none" stroke="#151411" stroke-opacity=".1"/>
  <path d="M76 92h56" stroke="#b56f2f" stroke-width="4" stroke-linecap="round"/>
  <path d="M76 112h118" stroke="#151411" stroke-width="4" stroke-opacity=".18" stroke-linecap="round"/>
  <g transform="translate(28 26) scale(.94)" opacity=".92">
    <path d="M70 475 450 120l380 355H70Z" fill="#fffaf0" stroke="#151411" stroke-width="5"/><path d="M135 455h610M190 405h500M245 355h390M300 305h280" stroke="#69735a" stroke-width="8"/><path d="M170 455 450 195l280 260M270 455 450 285l180 170M370 455l80-80 80 80" stroke="#b56f2f" stroke-width="6"/>
  </g>
</svg>
